<mxfile host="app.diagrams.net" modified="2024-05-01T18:37:38.544Z" agent="Mozilla/5.0 (Windows NT 10.0; Win64; x64) AppleWebKit/537.36 (KHTML, like Gecko) Chrome/124.0.0.0 Safari/537.36" etag="pD_CbVTInFddRl35rMZP" version="24.3.1" type="github">
  <diagram id="C5RBs43oDa-KdzZeNtuy" name="Page-1">
    <mxGraphModel dx="503" dy="243" grid="1" gridSize="10" guides="1" tooltips="1" connect="1" arrows="1" fold="1" page="1" pageScale="1" pageWidth="827" pageHeight="1169" math="0" shadow="0">
      <root>
        <mxCell id="WIyWlLk6GJQsqaUBKTNV-0" />
        <mxCell id="WIyWlLk6GJQsqaUBKTNV-1" parent="WIyWlLk6GJQsqaUBKTNV-0" />
        <mxCell id="zkfFHV4jXpPFQw0GAbJ--6" value="&lt;&lt;abstract&gt;&gt;&#xa;Cliente" style="swimlane;fontStyle=0;align=center;verticalAlign=top;childLayout=stackLayout;horizontal=1;startSize=40;horizontalStack=0;resizeParent=1;resizeLast=0;collapsible=1;marginBottom=0;rounded=0;shadow=0;strokeWidth=1;fontSize=13;" parent="WIyWlLk6GJQsqaUBKTNV-1" vertex="1">
          <mxGeometry x="350" y="190" width="220" height="270" as="geometry">
            <mxRectangle x="130" y="380" width="160" height="26" as="alternateBounds" />
          </mxGeometry>
        </mxCell>
        <mxCell id="zkfFHV4jXpPFQw0GAbJ--7" value="#codigo: Interger&#xa;#nome:  String&#xa;#endereco: String&#xa;#email :String" style="text;align=left;verticalAlign=top;spacingLeft=4;spacingRight=4;overflow=hidden;rotatable=0;points=[[0,0.5],[1,0.5]];portConstraint=eastwest;" parent="zkfFHV4jXpPFQw0GAbJ--6" vertex="1">
          <mxGeometry y="40" width="220" height="70" as="geometry" />
        </mxCell>
        <mxCell id="zkfFHV4jXpPFQw0GAbJ--9" value="" style="line;html=1;strokeWidth=1;align=left;verticalAlign=middle;spacingTop=-1;spacingLeft=3;spacingRight=3;rotatable=0;labelPosition=right;points=[];portConstraint=eastwest;" parent="zkfFHV4jXpPFQw0GAbJ--6" vertex="1">
          <mxGeometry y="110" width="220" height="8" as="geometry" />
        </mxCell>
        <mxCell id="hSTDr8NA67b-wajZTIG6-1" value="Reserva" style="swimlane;fontStyle=0;align=center;verticalAlign=top;childLayout=stackLayout;horizontal=1;startSize=40;horizontalStack=0;resizeParent=1;resizeLast=0;collapsible=1;marginBottom=0;rounded=0;shadow=0;strokeWidth=1;fontSize=13;" vertex="1" parent="WIyWlLk6GJQsqaUBKTNV-1">
          <mxGeometry x="40" y="180" width="220" height="290" as="geometry">
            <mxRectangle x="130" y="380" width="160" height="26" as="alternateBounds" />
          </mxGeometry>
        </mxCell>
        <mxCell id="hSTDr8NA67b-wajZTIG6-2" value="-codigo: Interger&#xa;-dataInicio:  Date&#xa;-dataFim: Date&#xa;-status: Boolean&#xa;-valorTotal: BigDecimal&#xa;-tipoPagamento: String&#xa;-desconto: BigDecimal&#xa;-quantidadeDeParcelas: Integer" style="text;align=left;verticalAlign=top;spacingLeft=4;spacingRight=4;overflow=hidden;rotatable=0;points=[[0,0.5],[1,0.5]];portConstraint=eastwest;" vertex="1" parent="hSTDr8NA67b-wajZTIG6-1">
          <mxGeometry y="40" width="220" height="140" as="geometry" />
        </mxCell>
        <mxCell id="hSTDr8NA67b-wajZTIG6-3" value="" style="line;html=1;strokeWidth=1;align=left;verticalAlign=middle;spacingTop=-1;spacingLeft=3;spacingRight=3;rotatable=0;labelPosition=right;points=[];portConstraint=eastwest;" vertex="1" parent="hSTDr8NA67b-wajZTIG6-1">
          <mxGeometry y="180" width="220" height="8" as="geometry" />
        </mxCell>
        <mxCell id="hSTDr8NA67b-wajZTIG6-4" value="+getters()&#xa;+setters()&#xa;+validarValorTotal()&#xa;+aplicarDesconto()&#xa;+processarPagamento()" style="text;align=left;verticalAlign=top;spacingLeft=4;spacingRight=4;overflow=hidden;rotatable=0;points=[[0,0.5],[1,0.5]];portConstraint=eastwest;fontStyle=4" vertex="1" parent="hSTDr8NA67b-wajZTIG6-1">
          <mxGeometry y="188" width="220" height="82" as="geometry" />
        </mxCell>
        <mxCell id="zkfFHV4jXpPFQw0GAbJ--10" value="+getCodigo(): Integer&#xa;+setCodigo(codigo:Integer ):void   &#xa;+getNome():String&#xa;+setNome(nome: String):void&#xa;+getEndereco(): String&#xa;+setEndereco(endereco:String):void   &#xa;+getEmail():String&#xa;+setEmail(email: String):void&#xa;+validarEmail(email:String):boolean&#xa;" style="text;align=left;verticalAlign=top;spacingLeft=4;spacingRight=4;overflow=hidden;rotatable=0;points=[[0,0.5],[1,0.5]];portConstraint=eastwest;fontStyle=4" parent="WIyWlLk6GJQsqaUBKTNV-1" vertex="1">
          <mxGeometry x="350" y="308" width="220" height="152" as="geometry" />
        </mxCell>
        <mxCell id="hSTDr8NA67b-wajZTIG6-9" value="Hospedagem" style="swimlane;fontStyle=0;align=center;verticalAlign=top;childLayout=stackLayout;horizontal=1;startSize=40;horizontalStack=0;resizeParent=1;resizeLast=0;collapsible=1;marginBottom=0;rounded=0;shadow=0;strokeWidth=1;fontSize=13;" vertex="1" parent="WIyWlLk6GJQsqaUBKTNV-1">
          <mxGeometry y="510" width="170" height="200" as="geometry">
            <mxRectangle x="130" y="380" width="160" height="26" as="alternateBounds" />
          </mxGeometry>
        </mxCell>
        <mxCell id="hSTDr8NA67b-wajZTIG6-10" value="-numero: Integer&#xa;-dataEntrada:  Date&#xa;-dataSaida: Date&#xa;-valorDiaria: BigDecimal&#xa;-apto: Apto" style="text;align=left;verticalAlign=top;spacingLeft=4;spacingRight=4;overflow=hidden;rotatable=0;points=[[0,0.5],[1,0.5]];portConstraint=eastwest;" vertex="1" parent="hSTDr8NA67b-wajZTIG6-9">
          <mxGeometry y="40" width="170" height="90" as="geometry" />
        </mxCell>
        <mxCell id="hSTDr8NA67b-wajZTIG6-11" value="" style="line;html=1;strokeWidth=1;align=left;verticalAlign=middle;spacingTop=-1;spacingLeft=3;spacingRight=3;rotatable=0;labelPosition=right;points=[];portConstraint=eastwest;" vertex="1" parent="hSTDr8NA67b-wajZTIG6-9">
          <mxGeometry y="130" width="170" height="28" as="geometry" />
        </mxCell>
        <mxCell id="hSTDr8NA67b-wajZTIG6-12" value="+getters()&#xa;+setters()" style="text;align=left;verticalAlign=top;spacingLeft=4;spacingRight=4;overflow=hidden;rotatable=0;points=[[0,0.5],[1,0.5]];portConstraint=eastwest;fontStyle=4" vertex="1" parent="hSTDr8NA67b-wajZTIG6-9">
          <mxGeometry y="158" width="170" height="42" as="geometry" />
        </mxCell>
        <mxCell id="hSTDr8NA67b-wajZTIG6-18" value="Apartamento" style="swimlane;fontStyle=0;align=center;verticalAlign=top;childLayout=stackLayout;horizontal=1;startSize=40;horizontalStack=0;resizeParent=1;resizeLast=0;collapsible=1;marginBottom=0;rounded=0;shadow=0;strokeWidth=1;fontSize=13;" vertex="1" parent="WIyWlLk6GJQsqaUBKTNV-1">
          <mxGeometry x="210" y="500" width="170" height="200" as="geometry">
            <mxRectangle x="130" y="380" width="160" height="26" as="alternateBounds" />
          </mxGeometry>
        </mxCell>
        <mxCell id="hSTDr8NA67b-wajZTIG6-19" value="-numero: Integer&#xa;-dataEntrada:  Date&#xa;-dataSaida: Date&#xa;-precoDiaria: BigDecimal&#xa;-disponovel: Boolean&#xa;" style="text;align=left;verticalAlign=top;spacingLeft=4;spacingRight=4;overflow=hidden;rotatable=0;points=[[0,0.5],[1,0.5]];portConstraint=eastwest;" vertex="1" parent="hSTDr8NA67b-wajZTIG6-18">
          <mxGeometry y="40" width="170" height="90" as="geometry" />
        </mxCell>
        <mxCell id="hSTDr8NA67b-wajZTIG6-20" value="" style="line;html=1;strokeWidth=1;align=left;verticalAlign=middle;spacingTop=-1;spacingLeft=3;spacingRight=3;rotatable=0;labelPosition=right;points=[];portConstraint=eastwest;" vertex="1" parent="hSTDr8NA67b-wajZTIG6-18">
          <mxGeometry y="130" width="170" height="28" as="geometry" />
        </mxCell>
        <mxCell id="hSTDr8NA67b-wajZTIG6-21" value="+getters()&#xa;+setters()" style="text;align=left;verticalAlign=top;spacingLeft=4;spacingRight=4;overflow=hidden;rotatable=0;points=[[0,0.5],[1,0.5]];portConstraint=eastwest;fontStyle=4" vertex="1" parent="hSTDr8NA67b-wajZTIG6-18">
          <mxGeometry y="158" width="170" height="42" as="geometry" />
        </mxCell>
        <mxCell id="hSTDr8NA67b-wajZTIG6-22" value="Pessoa Fisica" style="swimlane;fontStyle=0;align=center;verticalAlign=top;childLayout=stackLayout;horizontal=1;startSize=40;horizontalStack=0;resizeParent=1;resizeLast=0;collapsible=1;marginBottom=0;rounded=0;shadow=0;strokeWidth=1;fontSize=13;" vertex="1" parent="WIyWlLk6GJQsqaUBKTNV-1">
          <mxGeometry x="414" y="490" width="266" height="152" as="geometry">
            <mxRectangle x="130" y="380" width="160" height="26" as="alternateBounds" />
          </mxGeometry>
        </mxCell>
        <mxCell id="hSTDr8NA67b-wajZTIG6-23" value="-cpf: String&#xa;-dataNascimento:Date" style="text;align=left;verticalAlign=top;spacingLeft=4;spacingRight=4;overflow=hidden;rotatable=0;points=[[0,0.5],[1,0.5]];portConstraint=eastwest;" vertex="1" parent="hSTDr8NA67b-wajZTIG6-22">
          <mxGeometry y="40" width="266" height="50" as="geometry" />
        </mxCell>
        <mxCell id="hSTDr8NA67b-wajZTIG6-24" value="" style="line;html=1;strokeWidth=1;align=left;verticalAlign=middle;spacingTop=-1;spacingLeft=3;spacingRight=3;rotatable=0;labelPosition=right;points=[];portConstraint=eastwest;" vertex="1" parent="hSTDr8NA67b-wajZTIG6-22">
          <mxGeometry y="90" width="266" height="20" as="geometry" />
        </mxCell>
        <mxCell id="hSTDr8NA67b-wajZTIG6-25" value="+validarDocumento(documento:String): boolean" style="text;align=left;verticalAlign=top;spacingLeft=4;spacingRight=4;overflow=hidden;rotatable=0;points=[[0,0.5],[1,0.5]];portConstraint=eastwest;fontStyle=4" vertex="1" parent="hSTDr8NA67b-wajZTIG6-22">
          <mxGeometry y="110" width="266" height="42" as="geometry" />
        </mxCell>
        <mxCell id="hSTDr8NA67b-wajZTIG6-26" value="Pessoa Juridica" style="swimlane;fontStyle=0;align=center;verticalAlign=top;childLayout=stackLayout;horizontal=1;startSize=40;horizontalStack=0;resizeParent=1;resizeLast=0;collapsible=1;marginBottom=0;rounded=0;shadow=0;strokeWidth=1;fontSize=13;" vertex="1" parent="WIyWlLk6GJQsqaUBKTNV-1">
          <mxGeometry x="710" y="490" width="266" height="152" as="geometry">
            <mxRectangle x="130" y="380" width="160" height="26" as="alternateBounds" />
          </mxGeometry>
        </mxCell>
        <mxCell id="hSTDr8NA67b-wajZTIG6-27" value="-cnpj: String&#xa;-dataFundacao:Date" style="text;align=left;verticalAlign=top;spacingLeft=4;spacingRight=4;overflow=hidden;rotatable=0;points=[[0,0.5],[1,0.5]];portConstraint=eastwest;" vertex="1" parent="hSTDr8NA67b-wajZTIG6-26">
          <mxGeometry y="40" width="266" height="50" as="geometry" />
        </mxCell>
        <mxCell id="hSTDr8NA67b-wajZTIG6-28" value="" style="line;html=1;strokeWidth=1;align=left;verticalAlign=middle;spacingTop=-1;spacingLeft=3;spacingRight=3;rotatable=0;labelPosition=right;points=[];portConstraint=eastwest;" vertex="1" parent="hSTDr8NA67b-wajZTIG6-26">
          <mxGeometry y="90" width="266" height="20" as="geometry" />
        </mxCell>
        <mxCell id="hSTDr8NA67b-wajZTIG6-29" value="+validarDocumento(documento:String): boolean" style="text;align=left;verticalAlign=top;spacingLeft=4;spacingRight=4;overflow=hidden;rotatable=0;points=[[0,0.5],[1,0.5]];portConstraint=eastwest;fontStyle=4" vertex="1" parent="hSTDr8NA67b-wajZTIG6-26">
          <mxGeometry y="110" width="266" height="42" as="geometry" />
        </mxCell>
      </root>
    </mxGraphModel>
  </diagram>
</mxfile>
